Coordinates
version=1
nRows=16
nColumns=22
inDegrees=yes

Units are S.I. units (second, meters, Newtons, ...)
If the header above contains a line with 'inDegrees', this indicates whether rotational values are in degrees (yes) or radians (no).

endheader
time	pelvis_tilt	pelvis_list	pelvis_rotation	pelvis_tx	pelvis_ty	pelvis_tz	hip_flexion_r	hip_adduction_r	hip_rotation_r	knee_angle_r	ankle_angle_r	subtalar_angle_r	hip_flexion_l	hip_adduction_l	hip_rotation_l	knee_angle_l	ankle_angle_l	subtalar_angle_l	lumbar_extension	lumbar_bending	lumbar_rotation
      5.61000000	     -8.46803940	      6.71321995	    -52.90679213	      1.10853847	      0.86809118	      0.97561049	     20.53995927	     -4.62162699	      4.74719774	    -46.09442485	     12.15671196	     -1.63297011	     22.21482524	     -4.59587241	     -6.21160220	    -11.81280045	      4.80624979	      4.03603020	      0.82856564	     -0.78818428	     15.75267364
      5.62000000	     -8.73451434	      6.54729466	    -52.73535900	      1.11164013	      0.86901543	      0.97712864	     20.96379095	     -4.10860399	      4.35167448	    -44.19378701	     12.55693690	     -1.76346918	     21.94991058	     -4.75033617	     -6.04484172	    -11.59835795	      4.79544117	      4.00671032	      0.68655574	     -0.52747643	     15.33574700
      5.63000000	     -9.01348990	      6.37710226	    -52.54414510	      1.11462888	      0.86989569	      0.97868145	     21.28937242	     -3.56394498	      3.99244584	    -42.06099440	     12.89695211	     -1.87216234	     21.70299063	     -4.92318787	     -5.86663267	    -11.39299268	      4.78558193	      3.99566072	      0.55807068	     -0.26059439	     14.93180887
      5.64000000	     -9.29998022	      6.21041538	    -52.33722331	      1.11751013	      0.87070986	      0.98025814	     21.52323522	     -2.99733839	      3.69973013	    -39.72340160	     13.16592298	     -1.91278537	     21.47672290	     -5.10506928	     -5.68432597	    -11.19630902	      4.78606662	      4.00006931	      0.44597965	      0.00415814	     14.54397053
      5.65000000	     -9.58766247	      6.05384349	    -52.11822245	      1.12028329	      0.87144076	      0.98185920	     21.67256238	     -2.42056342	      3.50139798	    -37.21719085	     13.35541727	     -1.85681696	     21.27062736	     -5.28725257	     -5.50457696	    -11.00639211	      4.80407195	      4.01567724	      0.35236027	      0.25670340	     14.17068274
      5.66000000	     -9.86800127	      5.91390376	    -51.88871372	      1.12295296	      0.87207587	      0.98347693	     21.74998262	     -1.85086673	      3.41717451	    -34.58961548	     13.46209518	     -1.69821695	     21.08644158	     -5.45729747	     -5.32896714	    -10.82788124	      4.84265458	      4.03631427	      0.27647642	      0.48479581	     13.81427250
      5.67000000	    -10.13143548	      5.79845020	    -51.65164571	      1.12554404	      0.87260498	      0.98509180	     21.77620233	     -1.31113546	      3.45872087	    -31.90318585	     13.48909074	     -1.45763956	     20.92405766	     -5.60028982	     -5.16126679	    -10.66274892	      4.90205960	      4.05431497	      0.21975940	      0.68142437	     13.47369535
      5.68000000	    -10.37345138	      5.70568719	    -51.40351255	      1.12803531	      0.87303602	      0.98672274	     21.76396916	     -0.81026929	      3.62563285	    -29.21522004	     13.45106158	     -1.16790322	     20.78253662	     -5.71564066	     -4.99088090	    -10.51726718	      4.96918176	      4.06428368	      0.17639850	      0.83364869	     13.15378730
      5.69000000	    -10.61280710	      5.65847259	    -51.16344624	      1.13043317	      0.87333348	      0.98836069	     21.77898032	     -0.34945624	      3.92717643	    -26.60286673	     13.30561368	     -0.94927286	     20.67672145	     -5.80669133	     -4.84766030	    -10.36511657	      5.05744524	      4.04507774	      0.18302719	      0.95667298	     12.84825888
      5.70000000	    -10.82435019	      5.63006669	    -50.91017360	      1.13276237	      0.87355994	      0.98998652	     21.79149811	      0.05128271	      4.31307353	    -24.10952343	     13.10968812	     -0.78457457	     20.59009199	     -5.86354391	     -4.68674246	    -10.24490948	      5.14916582	      4.01438703	      0.19482295	      1.03895595	     12.56084287
      5.71000000	    -11.03111267	      5.65165817	    -50.66640391	      1.13497322	      0.87368048	      0.99159703	     21.87060797	      0.39810201	      4.79343450	    -21.78929431	     12.84350776	     -0.70811390	     20.54938022	     -5.89249516	     -4.52377467	    -10.13108601	      5.19628161	      3.97323384	      0.25369945	      1.08103055	     12.32592985
      5.72000000	    -11.22099031	      5.66691747	    -50.40744912	      1.13714096	      0.87377510	      0.99320934	     21.95375182	      0.70436026	      5.28551164	    -19.65238653	     12.51091501	     -0.68670882	     20.50754305	     -5.91261735	     -4.35563626	    -10.03908683	      5.29713519	      3.92282940	      0.30407640	      1.11541010	     12.07394543
      5.73000000	    -11.39876877	      5.69923585	    -50.15016861	      1.13922833	      0.87382361	      0.99481202	     22.07797291	      0.96831170	      5.79650216	    -17.72527597	     12.12725641	     -0.70489286	     20.47954018	     -5.91872184	     -4.18442660	     -9.95618408	      5.39765512	      3.86920122	      0.36564206	      1.13066287	     11.83844659
      5.74000000	    -11.57016470	      5.73982497	    -49.90348456	      1.14122188	      0.87383936	      0.99642495	     22.24215450	      1.20894712	      6.29709636	    -16.01657840	     11.68424643	     -0.73329392	     20.45709931	     -5.92452949	     -4.01863040	     -9.87708162	      5.50086018	      3.81620886	      0.43551988	      1.13755559	     11.62952947
      5.75000000	    -11.73495641	      5.78860911	    -49.67019811	      1.14311940	      0.87382683	      0.99805573	     22.44157916	      1.43161705	      6.77855073	    -14.52191428	     11.17480495	     -0.74346890	     20.43470216	     -5.93136795	     -3.86527472	     -9.79453204	      5.60273047	      3.77052914	      0.51281572	      1.13531428	     11.44963088
      5.76000000	    -11.89149200	      5.83866157	    -49.45427496	      1.14492725	      0.87379703	      0.99970415	     22.66168509	      1.64182905	      7.22663607	    -13.22624717	     10.59361850	     -0.72285007	     20.40216875	     -5.94304619	     -3.72842081	     -9.70388774	      5.70934664	      3.73486619	      0.58830717	      1.13053389	     11.29844660
